HIERARCHY
ROOT Hips
{
 OFFSET 0.000000 0.000000 0.000000
 CHANNELS 6 Xposition Yposition Zposition Yrotation Xrotation Zrotation
 JOINT Chest
 {
  OFFSET 0.000000 9.585900 0.002600
  CHANNELS 3 Yrotation Xrotation Zrotation
  JOINT Chest2
  {
   OFFSET 0.000000 9.601200 -0.005300
   CHANNELS 3 Yrotation Xrotation Zrotation
   JOINT Chest3
   {
    OFFSET 0.000000 9.561800 0.000000
    CHANNELS 3 Yrotation Xrotation Zrotation
    JOINT Chest4
    {
     OFFSET 0.000000 9.552100 0.000000
     CHANNELS 3 Yrotation Xrotation Zrotation
     JOINT Neck
     {
      OFFSET 0.000000 14.453000 0.000000
      CHANNELS 3 Yrotation Xrotation Zrotation
      JOINT Head
      {
       OFFSET 0.000000 8.936500 -0.011300
       CHANNELS 3 Yrotation Xrotation Zrotation
       End Site
       {
        OFFSET 0.000000 17.073600 -0.006000
       }
      }
     }
     JOINT RightCollar
     {
      OFFSET -2.921100 9.558500 0.000000
      CHANNELS 3 Yrotation Xrotation Zrotation
      JOINT RightShoulder
      {
       OFFSET -13.519700 0.000000 0.000000
       CHANNELS 3 Yrotation Xrotation Zrotation
       JOINT RightElbow
       {
        OFFSET 0.000000 -29.696600 0.000000
        CHANNELS 3 Yrotation Xrotation Zrotation
        JOINT RightWrist
        {
         OFFSET 0.000000 -24.004700 0.000000
         CHANNELS 3 Yrotation Xrotation Zrotation
         End Site
         {
          OFFSET 0.000000 -17.728500 0.000000
         }
        }
       }
      }
     }
     JOINT LeftCollar
     {
      OFFSET 2.921100 9.558500 0.000000
      CHANNELS 3 Yrotation Xrotation Zrotation
      JOINT LeftShoulder
      {
       OFFSET 13.519700 0.000000 0.000000
       CHANNELS 3 Yrotation Xrotation Zrotation
       JOINT LeftElbow
       {
        OFFSET 0.000000 -29.696600 0.000000
        CHANNELS 3 Yrotation Xrotation Zrotation
        JOINT LeftWrist
        {
         OFFSET 0.000000 -24.004700 0.000000
         CHANNELS 3 Yrotation Xrotation Zrotation
         End Site
         {
          OFFSET 0.000000 -17.728500 0.000000
         }
        }
       }
      }
     }
    }
   }
  }
 }
 JOINT RightHip
 {
  OFFSET -7.771700 -0.012900 -0.001300
  CHANNELS 3 Yrotation Xrotation Zrotation
  JOINT RightKnee
  {
   OFFSET 0.000000 -40.869800 0.001200
   CHANNELS 3 Yrotation Xrotation Zrotation
   JOINT RightAnkle
   {
    OFFSET 0.000000 -39.717900 0.002100
    CHANNELS 3 Yrotation Xrotation Zrotation
    JOINT RightToe
    {
     OFFSET 0.000000 -4.965400 11.033500
     CHANNELS 3 Yrotation Xrotation Zrotation
     End Site
     {
      OFFSET 0.000000 -1.423100 5.872300
     }
    }
   }
  }
 }
 JOINT LeftHip
 {
  OFFSET 7.771700 -0.012900 -0.001300
  CHANNELS 3 Yrotation Xrotation Zrotation
  JOINT LeftKnee
  {
   OFFSET 0.000000 -40.869800 0.001200
   CHANNELS 3 Yrotation Xrotation Zrotation
   JOINT LeftAnkle
   {
    OFFSET 0.000000 -39.717900 0.002100
    CHANNELS 3 Yrotation Xrotation Zrotation
    JOINT LeftToe
    {
     OFFSET 0.000000 -4.965400 11.033500
     CHANNELS 3 Yrotation Xrotation Zrotation
     End Site
     {
      OFFSET 0.000000 -1.423100 5.872300
     }
    }
   }
  }
 }
}
MOTION
Frames: 13
Frame Time: 0.008333
0.000000 85.388000 0.000000 0.000000 -5.767877 0.000000 0.000000 11.653817 0.000000 0.000000 -5.885947 0.000000 0.000000 -0.000000 0.000000 0.000000 -0.000000 0.000000 0.000000 12.528835 0.000000 0.000000 0.711642 0.000000 0.000000 -0.000000 0.000000 0.000000 0.000000 -90.000000 0.000000 -2.309062 0.000000 0.000000 2.309062 0.000000 0.000000 -0.000000 0.000000 0.000000 -0.000000 90.000000 0.000000 -2.309062 0.000000 0.000000 2.309062 0.000000 0.000000 8.520406 0.000000 0.000000 1.905762 0.000000 -0.000000 -4.658285 0.000000 0.000000 -0.000000 0.000000 0.000000 8.520406 0.000000 0.000000 1.905762 0.000000 -0.000000 -4.658285 0.000000 0.000000 -0.000000 0.000000
3.310092 50.029794 42.532069 172.740021 -32.148979 -6.685224 6.788307 19.612028 7.214650 0.784467 2.662391 0.690450 1.279824 4.353158 1.151840 5.609459 16.862925 5.191839 -6.874409 20.057268 0.438866 -12.651648 1.764213 2.836685 -1.489183 -0.933971 -2.679131 2.482020 -5.520163 -5.078590 -158.940254 -50.558580 159.175324 -15.043544 -9.981382 15.663464 -11.328538 0.187478 -0.611953 6.371194 -10.615738 0.226251 175.869684 -67.756424 -168.869940 28.440115 1.538056 -11.686572 -1.888041 -48.884364 10.720116 -76.898183 84.240326 -64.961655 -0.893572 -8.210824 -5.725135 -0.164471 0.856132 -0.080520 -10.474433 -52.715637 17.754412 -146.599211 83.369132 -154.150943 0.179517 -12.887912 7.114316 -0.296433 -0.648205 -0.121456
3.310798 50.030299 42.530469 172.741536 -32.136354 -6.690674 6.777613 19.610458 7.217269 0.781246 2.662335 0.692336 1.274408 4.350038 1.151227 5.596556 16.856498 5.187018 -6.869084 20.047566 0.433619 -12.702867 1.682587 2.853864 -1.470491 -0.922060 -2.684249 2.431571 -5.507523 -5.052539 -159.288141 -50.674408 159.355702 -15.038151 -10.018654 15.539036 -11.325214 0.200843 -0.626692 6.370400 -10.607649 0.233186 175.782430 -67.789883 -168.794883 28.313910 1.645822 -11.388361 -1.911829 -48.892599 10.727518 -76.861213 84.255377 -64.913463 -0.911358 -8.209857 -5.752073 -0.160321 0.850461 -0.071039 -10.453591 -52.727895 17.755284 -146.566109 83.367100 -154.116459 0.172371 -12.894926 7.131392 -0.300720 -0.641004 -0.123558
3.310302 50.031084 42.528136 172.738707 -32.123059 -6.687444 6.773190 19.602543 7.212862 0.762452 2.672315 0.692427 1.279721 4.338445 1.151775 5.594811 16.853064 5.182305 -6.910629 19.985856 0.432657 -12.741247 1.594305 2.852927 -1.491507 -0.888593 -2.674632 2.398440 -5.521305 -5.032622 -159.758504 -50.815976 159.625578 -15.034328 -10.066681 15.392846 -11.334894 0.206755 -0.639753 6.336942 -10.622355 0.245626 175.797156 -67.838242 -168.776319 28.161540 1.793156 -11.056288 -1.936828 -48.897486 10.730466 -76.789268 84.272527 -64.832892 -0.945774 -8.220431 -5.769193 -0.152968 0.853059 -0.074731 -10.436246 -52.739397 17.751171 -146.581066 83.367983 -154.133889 0.162561 -12.899020 7.143938 -0.300458 -0.637411 -0.126781
3.308728 50.031429 42.526433 172.731222 -32.100353 -6.677408 6.771085 19.585328 7.202160 0.754847 2.677542 0.690695 1.279071 4.331869 1.151734 5.601106 16.849491 5.182137 -6.968564 19.903473 0.433221 -12.786471 1.476893 2.856662 -1.518537 -0.862838 -2.670328 2.343153 -5.533618 -4.999592 -160.439902 -51.000234 160.057291 -15.019065 -10.137959 15.190306 -11.346141 0.199956 -0.651859 6.307691 -10.641974 0.262059 175.830419 -67.876647 -168.774371 27.968322 1.984268 -10.719814 -1.990663 -48.905466 10.737091 -76.633581 84.305181 -64.700079 -0.901107 -8.229162 -5.779110 -0.152076 0.863972 -0.086835 -10.413373 -52.760221 17.749324 -146.545610 83.365271 -154.114191 0.165774 -12.904236 7.165794 -0.317320 -0.637783 -0.126981
3.308870 50.032845 42.523903 172.727120 -32.081801 -6.680401 6.764497 19.578480 7.198962 0.754160 2.679073 0.692465 1.261126 4.337919 1.148094 5.604812 16.835881 5.177206 -6.995004 19.815305 0.432995 -12.842236 1.308221 2.868293 -1.531413 -0.852025 -2.667738 2.283684 -5.537182 -4.963368 -161.420660 -51.238530 160.716440 -14.968643 -10.242503 14.894201 -11.345078 0.166046 -0.691326 6.295645 -10.649205 0.305428 176.032121 -67.984246 -168.947074 27.807296 2.133051 -10.419677 -2.027074 -48.914128 10.751839 -76.544795 84.323278 -64.621405 -0.863430 -8.232387 -5.792694 -0.175773 0.867835 -0.087826 -10.391593 -52.779232 17.748091 -146.513673 83.361369 -154.076458 0.164877 -12.903328 7.171632 -0.321301 -0.639729 -0.123800
3.309860 50.035217 42.520469 172.721996 -32.067350 -6.688620 6.757592 19.596696 7.203126 0.761247 2.662233 0.692005 1.258697 4.335466 1.147418 5.590560 16.832628 5.175573 -7.013380 19.700861 0.428200 -12.891631 1.096883 2.881851 -1.574130 -0.840502 -2.667000 2.254265 -5.546742 -4.931671 -162.746719 -51.524990 161.636541 -14.854431 -10.375394 14.462684 -11.332002 0.137469 -0.723432 6.287416 -10.672838 0.332335 176.317292 -68.073986 -169.179894 27.636662 2.313239 -10.165687 -2.068008 -48.918123 10.769495 -76.439637 84.347008 -64.498303 -0.887447 -8.229565 -5.839744 -0.139131 0.858290 -0.074048 -10.377305 -52.791451 17.752031 -146.513165 83.359308 -154.067251 0.166080 -12.907573 7.176894 -0.324765 -0.635170 -0.129304
3.309946 50.037567 42.517165 172.713965 -32.047525 -6.691034 6.759726 19.597102 7.204265 0.763399 2.649884 0.693004 1.255439 4.338215 1.146741 5.577749 16.831043 5.174260 -7.024414 19.562586 0.424605 -12.928755 0.842966 2.899961 -1.564045 -0.845872 -2.670441 2.172290 -5.535500 -4.900108 -164.387235 -51.836436 162.799169 -14.657759 -10.509361 13.872284 -11.319198 0.118415 -0.741627 6.289424 -10.706890 0.340753 176.664166 -68.159692 -169.462383 27.444788 2.491646 -9.970135 -2.105586 -48.930057 10.790941 -76.371301 84.360890 -64.436994 -0.873474 -8.223572 -5.854846 -0.145618 0.850741 -0.075714 -10.362762 -52.809209 17.754471 -146.521800 83.358017 -154.070783 0.164283 -12.907122 7.182447 -0.328443 -0.639921 -0.128770
3.308717 50.039140 42.515145 172.703982 -32.013444 -6.686219 6.761500 19.580243 7.197445 0.762998 2.642181 0.694727 1.252135 4.341969 1.141507 5.574663 16.828478 5.176834 -7.032262 19.398279 0.421667 -12.947655 0.553183 2.919934 -1.591306 -0.854680 -2.669011 2.125248 -5.525029 -4.874830 -166.275385 -52.154974 164.159673 -14.389382 -10.614448 13.141375 -11.315834 0.097442 -0.757551 6.296659 -10.719484 0.352536 177.130448 -68.234326 -169.834751 27.252487 2.640755 -9.846517 -2.140330 -48.957875 10.812238 -76.316057 84.369667 -64.398723 -0.865731 -8.223086 -5.857555 -0.150066 0.849894 -0.080376 -10.348459 -52.842395 17.754918 -146.512631 83.357875 -154.059696 0.158624 -12.901567 7.188737 -0.326448 -0.646455 -0.127530
3.307441 50.038806 42.516845 172.713366 -31.947664 -6.694684 6.744402 19.521980 7.191912 0.758166 2.671853 0.683869 1.252677 4.317862 1.145224 5.551422 16.816031 5.162322 -7.009199 19.227507 0.427643 -12.945814 0.238746 2.937449 -1.615841 -0.861798 -2.638774 2.096169 -5.506974 -4.863169 -168.356095 -52.477900 165.682023 -14.074142 -10.674033 12.305113 -11.331135 0.054750 -0.797761 6.335861 -10.698611 0.401516 177.742060 -68.323297 -170.321985 27.072585 2.741914 -9.792358 -2.202034 -49.014236 10.839537 -76.257985 84.376679 -64.350203 -0.870840 -8.225232 -5.871950 -0.160363 0.850915 -0.078262 -10.357695 -52.908429 17.760097 -146.503793 83.361635 -154.039665 0.152073 -12.902681 7.191559 -0.324783 -0.632526 -0.131453
3.306474 50.041597 42.513981 172.723011 -31.910582 -6.701972 6.735557 19.507606 7.185968 0.756755 2.657012 0.685304 1.251966 4.313093 1.146440 5.539916 16.806224 5.154002 -6.996275 19.042748 0.426751 -12.925396 -0.089592 2.949822 -1.624483 -0.882144 -2.623784 2.031125 -5.477252 -4.831790 -170.611079 -52.810700 167.351959 -13.734118 -10.685942 11.394619 -11.347499 0.029046 -0.814691 6.380552 -10.707865 0.407282 178.500098 -68.447747 -170.945901 26.907161 2.790638 -9.793075 -2.257147 -49.039484 10.860558 -76.219564 84.384376 -64.320869 -0.867994 -8.223232 -5.888950 -0.161955 0.843851 -0.076073 -10.373357 -52.940380 17.769342 -146.525562 83.366309 -154.063886 0.143795 -12.896607 7.197774 -0.324337 -0.637362 -0.132249
3.305797 50.045793 42.509329 172.726269 -31.883878 -6.706631 6.734925 19.498486 7.181108 0.754260 2.644810 0.687726 1.247543 4.308806 1.140624 5.542917 16.800590 5.160037 -6.983106 18.836256 0.423982 -12.888257 -0.422638 2.956564 -1.640018 -0.932437 -2.613687 1.964168 -5.433355 -4.785861 -173.057015 -53.156441 169.179614 -13.385475 -10.663992 10.428786 -11.376322 -0.013761 -0.827555 6.417770 -10.691395 0.409115 179.403163 -68.571569 -171.680776 26.753616 2.792242 -9.834568 -2.285730 -49.057689 10.871415 -76.210633 84.389304 -64.308936 -0.875264 -8.219853 -5.907944 -0.153848 0.833406 -0.069765 -10.379283 -52.960901 17.776660 -146.511883 83.367700 -154.053733 0.140279 -12.888655 7.207826 -0.324151 -0.646876 -0.135438
3.304541 50.048314 42.507490 172.735500 -31.833577 -6.713590 6.721654 19.462345 7.170365 0.751461 2.636287 0.686428 1.233066 4.274345 1.132494 5.545155 16.798791 5.165456 -6.947371 18.645351 0.427873 -12.835236 -0.752823 2.960821 -1.627976 -0.928520 -2.605336 1.882327 -5.427562 -4.723362 -175.736724 -53.512723 171.202741 -13.026394 -10.634337 9.401869 -11.393375 -0.041533 -0.833582 6.439259 -10.658951 0.405645 -179.555686 -68.705257 -172.520574 26.607061 2.755435 -9.902968 -2.321584 -49.099736 10.884185 -76.176275 84.393648 -64.272638 -0.893341 -8.219351 -5.919882 -0.140466 0.827670 -0.068119 -10.386768 -53.006304 17.780860 -146.544443 83.375851 -154.083436 0.128907 -12.889003 7.219138 -0.326425 -0.641155 -0.139707
